<svg width="139" height="47" viewBox="0 0 139 47" fill="none" xmlns="http://www.w3.org/2000/svg">
<path d="M2.456 29L6.584 9.56H9.2L13.352 29H10.784L9.896 24.104H5.936L5 29H2.456ZM6.296 22.16H9.536L7.904 13.4L6.296 22.16ZM14.9165 29L15.2765 9.56H17.9405L21.3725 25.328L24.8285 9.56H27.4685L27.8285 29H25.6445L25.4285 14.888L22.1405 29H20.6045L17.3405 14.888L17.1245 29H14.9165ZM30.4483 29L30.4483 9.56L34.9123 9.56C35.7923 9.56 36.5523 9.656 37.1923 9.848C37.8483 10.04 38.3923 10.336 38.8243 10.736C39.2563 11.136 39.5763 11.648 39.7843 12.272C39.9923 12.88 40.0963 13.6 40.0963 14.432C40.0963 15.232 39.9923 15.928 39.7843 16.52C39.5923 17.096 39.2883 17.552 38.8723 17.888C38.4723 18.224 37.9523 18.44 37.3123 18.536C38.0963 18.712 38.7283 19.016 39.2083 19.448C39.6883 19.864 40.0403 20.408 40.2643 21.08C40.5043 21.736 40.6243 22.528 40.6243 23.456C40.6243 24.288 40.5283 25.048 40.3363 25.736C40.1443 26.424 39.8403 27.008 39.4243 27.488C39.0243 27.968 38.5043 28.344 37.8643 28.616C37.2403 28.872 36.4963 29 35.6323 29H30.4483ZM33.1603 27.056H34.9843C36.2003 27.056 37.0083 26.776 37.4083 26.216C37.8243 25.64 38.0323 24.72 38.0323 23.456C38.0323 22.64 37.9203 21.96 37.6963 21.416C37.4883 20.856 37.1443 20.44 36.6643 20.168C36.2003 19.88 35.5683 19.736 34.7683 19.736H33.1603V27.056ZM33.1603 17.672H34.7683C35.5363 17.672 36.1363 17.568 36.5683 17.36C37.0003 17.136 37.3043 16.784 37.4803 16.304C37.6563 15.824 37.7443 15.2 37.7443 14.432C37.7443 13.536 37.6083 12.888 37.3363 12.488C37.0643 12.088 36.6403 11.84 36.0643 11.744C35.4883 11.632 34.7363 11.576 33.8083 11.576H33.1603V17.672ZM42.6742 29V9.56H50.2102V11.576H45.3862V18.008H49.2982V19.928H45.3862V27.056H50.2582V29H42.6742ZM52.0876 29V9.56L55.9996 9.56C57.2956 9.56 58.3676 9.736 59.2156 10.088C60.0636 10.424 60.6876 10.976 61.0876 11.744C61.5036 12.496 61.7116 13.488 61.7116 14.72C61.7116 15.472 61.6316 16.16 61.4716 16.784C61.3116 17.392 61.0556 17.912 60.7036 18.344C60.3516 18.76 59.8876 19.064 59.3116 19.256L62.0716 29H59.4556L56.9116 19.88H54.7996V29H52.0876ZM54.7996 17.936H55.8316C56.5996 17.936 57.2236 17.84 57.7036 17.648C58.1836 17.456 58.5356 17.128 58.7596 16.664C58.9836 16.2 59.0956 15.552 59.0956 14.72C59.0956 13.584 58.8876 12.768 58.4716 12.272C58.0556 11.76 57.2316 11.504 55.9996 11.504L54.7996 11.504V17.936ZM67.9533 29.456V27.512C68.5453 27.512 69.0253 27.472 69.3933 27.392C69.7613 27.312 70.0413 27.168 70.2333 26.96C70.4413 26.752 70.5853 26.456 70.6653 26.072C70.7453 25.672 70.7853 25.168 70.7853 24.56V9.56H73.4733V24.608C73.4733 25.728 73.3533 26.648 73.1133 27.368C72.8733 28.072 72.4493 28.6 71.8413 28.952C71.2333 29.288 70.3693 29.456 69.2493 29.456H67.9533ZM81.1241 29.216C79.8121 29.216 78.7641 28.96 77.9801 28.448C77.1961 27.936 76.6361 27.208 76.3001 26.264C75.9641 25.304 75.7961 24.184 75.7961 22.904V15.536C75.7961 14.256 75.9641 13.16 76.3001 12.248C76.6521 11.32 77.2121 10.616 77.9801 10.136C78.7641 9.64 79.8121 9.392 81.1241 9.392C82.4361 9.392 83.4761 9.64 84.2441 10.136C85.0121 10.632 85.5641 11.336 85.9001 12.248C86.2521 13.16 86.4281 14.256 86.4281 15.536V22.928C86.4281 24.192 86.2521 25.296 85.9001 26.24C85.5641 27.184 85.0121 27.92 84.2441 28.448C83.4761 28.96 82.4361 29.216 81.1241 29.216ZM81.1241 27.08C81.8441 27.08 82.3881 26.936 82.7561 26.648C83.1241 26.344 83.3721 25.928 83.5001 25.4C83.6281 24.856 83.6921 24.224 83.6921 23.504V14.984C83.6921 14.264 83.6281 13.648 83.5001 13.136C83.3721 12.608 83.1241 12.208 82.7561 11.936C82.3881 11.648 81.8441 11.504 81.1241 11.504C80.4041 11.504 79.8521 11.648 79.4681 11.936C79.1001 12.208 78.8521 12.608 78.7241 13.136C78.5961 13.648 78.5321 14.264 78.5321 14.984V23.504C78.5321 24.224 78.5961 24.856 78.7241 25.4C78.8521 25.928 79.1001 26.344 79.4681 26.648C79.8521 26.936 80.4041 27.08 81.1241 27.08ZM88.7336 29V9.56H90.5816L96.1016 22.472V9.56L98.3576 9.56V29H96.6296L91.0376 15.728V29H88.7336ZM101.053 29V9.56H108.589V11.576H103.765V18.008H107.677V19.928H103.765V27.056L108.637 27.056V29L101.053 29ZM115.051 29.216C113.931 29.216 112.995 28.976 112.243 28.496C111.507 28.016 110.947 27.352 110.563 26.504C110.179 25.656 109.955 24.672 109.891 23.552L112.291 22.904C112.339 23.592 112.443 24.256 112.603 24.896C112.779 25.536 113.059 26.064 113.443 26.48C113.827 26.88 114.363 27.08 115.051 27.08C115.755 27.08 116.283 26.888 116.635 26.504C117.003 26.104 117.187 25.536 117.187 24.8C117.187 23.92 116.987 23.216 116.587 22.688C116.187 22.144 115.683 21.6 115.075 21.056L111.811 18.176C111.171 17.616 110.699 17.008 110.395 16.352C110.091 15.68 109.939 14.856 109.939 13.88C109.939 12.456 110.347 11.352 111.163 10.568C111.979 9.784 113.091 9.392 114.499 9.392C115.267 9.392 115.939 9.496 116.515 9.704C117.107 9.896 117.595 10.2 117.979 10.616C118.379 11.032 118.691 11.56 118.915 12.2C119.155 12.824 119.315 13.56 119.395 14.408L117.091 15.032C117.043 14.392 116.947 13.808 116.803 13.28C116.659 12.736 116.403 12.304 116.035 11.984C115.683 11.648 115.171 11.48 114.499 11.48C113.827 11.48 113.299 11.664 112.915 12.032C112.547 12.384 112.363 12.912 112.363 13.616C112.363 14.208 112.459 14.696 112.651 15.08C112.859 15.464 113.187 15.856 113.635 16.256L116.923 19.136C117.659 19.776 118.307 20.544 118.867 21.44C119.427 22.32 119.707 23.368 119.707 24.584C119.707 25.544 119.507 26.376 119.107 27.08C118.707 27.768 118.155 28.296 117.451 28.664C116.763 29.032 115.963 29.216 115.051 29.216Z" fill="#ECECEC"/>
<path d="M138.707 39.7071C139.098 39.3166 139.098 38.6834 138.707 38.2929L132.343 31.9289C131.953 31.5384 131.319 31.5384 130.929 31.9289C130.538 32.3195 130.538 32.9526 130.929 33.3431L136.586 39L130.929 44.6569C130.538 45.0474 130.538 45.6805 130.929 46.0711C131.319 46.4616 131.953 46.4616 132.343 46.0711L138.707 39.7071ZM0 40H138V38H0V40Z" fill="#D5D2CE" fill-opacity="0.6"/>
</svg>
