<svg width="76" height="90" viewBox="0 0 76 90" fill="none" xmlns="http://www.w3.org/2000/svg">
<path d="M9.37636 36.6226H14.7273L23.22 76.3862H17.9673L16.1509 66.3717H8.05091L6.13636 76.3862H0.932727L9.37636 36.6226ZM15.4145 62.3953L12.0764 44.4771L8.78727 62.3953H15.4145Z" fill="white"/>
<path d="M22.3077 20.9055H27.6095V26.4036H22.3077V20.9055ZM20.6877 66.1673C19.4113 66.1673 18.5113 66.0527 17.9877 65.8236V62.0436C18.675 62.1418 19.1331 62.1909 19.3622 62.1909C20.4422 62.1909 21.195 61.88 21.6204 61.2582C22.0786 60.6691 22.3077 59.8345 22.3077 58.7545V30.6255H27.5604V59.2945C27.5604 61.52 26.955 63.2218 25.744 64.4C24.5331 65.5782 22.8477 66.1673 20.6877 66.1673Z" fill="white"/>
<path d="M37.5012 30.2909H38.8103L41.6249 43.5454H40.3976L39.743 39.9945H36.5849L35.914 43.5454H34.703L37.5012 30.2909ZM39.5794 39.0945L38.1721 31.9436L36.7649 39.0945H39.5794ZM42.9759 34.0872H44.0886V35.0527C44.3941 34.6818 44.7377 34.4036 45.1195 34.2181C45.5013 34.0218 45.8995 33.9236 46.3141 33.9236C47.0995 33.9236 47.6013 34.3327 47.8195 35.1509C48.1359 34.7472 48.4904 34.4418 48.8832 34.2345C49.2868 34.0272 49.7068 33.9236 50.1432 33.9236C50.6123 33.9236 50.9941 34.0927 51.2886 34.4309C51.5941 34.769 51.7468 35.32 51.7468 36.0836V43.5454H50.6341V36.1163C50.6341 35.6036 50.5523 35.249 50.3886 35.0527C50.225 34.8454 49.9904 34.7418 49.685 34.7418C49.4013 34.7418 49.1013 34.829 48.785 35.0036C48.4686 35.1781 48.1741 35.4181 47.9013 35.7236C47.9232 35.8763 47.9341 35.9963 47.9341 36.0836V43.5454H46.805V36.1163C46.805 35.5927 46.7232 35.2327 46.5595 35.0363C46.3959 34.84 46.1613 34.7418 45.8559 34.7418C45.5723 34.7418 45.2777 34.829 44.9723 35.0036C44.6668 35.1781 44.3723 35.4127 44.0886 35.7072V43.5454H42.9759V34.0872ZM56.4031 43.6927C55.7922 43.6927 55.2304 43.3927 54.7177 42.7927V43.5454H53.5231V30.2909H54.7177V34.8727C54.925 34.6 55.1813 34.3763 55.4868 34.2018C55.7922 34.0272 56.1359 33.94 56.5177 33.94C57.3468 33.94 57.9141 34.2836 58.2195 34.9709C58.525 35.6581 58.6777 36.569 58.6777 37.7036V39.7C58.6777 40.9981 58.5086 41.9909 58.1704 42.6781C57.8322 43.3545 57.2431 43.6927 56.4031 43.6927ZM56.1904 42.7436C56.7031 42.7436 57.0413 42.509 57.205 42.04C57.3795 41.5709 57.4668 40.8018 57.4668 39.7327V37.7036C57.4668 36.689 57.3795 35.9636 57.205 35.5272C57.0413 35.0909 56.6977 34.8727 56.1741 34.8727C55.6941 34.8727 55.2086 35.1181 54.7177 35.609V42.0563C55.1322 42.5145 55.6231 42.7436 56.1904 42.7436ZM62.687 43.6927C62.0761 43.6927 61.5852 43.5727 61.2143 43.3327C60.8434 43.0927 60.5707 42.7054 60.3961 42.1709C60.2216 41.6363 60.1343 40.9109 60.1343 39.9945V37.6054C60.1343 36.6781 60.2216 35.9527 60.3961 35.429C60.5816 34.8945 60.8598 34.5127 61.2307 34.2836C61.6125 34.0545 62.1034 33.94 62.7034 33.94C63.3579 33.94 63.8598 34.0818 64.2089 34.3654C64.5689 34.6381 64.8143 35.0527 64.9452 35.609C65.087 36.1654 65.1579 36.9127 65.1579 37.8509V38.7018H61.3289V40.3545C61.3289 41.26 61.4325 41.8927 61.6398 42.2527C61.847 42.6127 62.1961 42.7927 62.687 42.7927C63.1016 42.7927 63.4179 42.6618 63.6361 42.4C63.8652 42.1381 63.9798 41.6636 63.9798 40.9763V40.3218H65.1416V40.8454C65.1416 41.7618 64.9507 42.4654 64.5689 42.9563C64.187 43.4472 63.5598 43.6927 62.687 43.6927ZM63.9798 38.0145V37.229C63.9798 36.6618 63.947 36.2145 63.8816 35.8872C63.827 35.56 63.707 35.3036 63.5216 35.1181C63.3361 34.9327 63.0579 34.84 62.687 34.84C62.3489 34.84 62.0816 34.9163 61.8852 35.069C61.6889 35.2109 61.547 35.4672 61.4598 35.8381C61.3725 36.1981 61.3289 36.7109 61.3289 37.3763V38.0145H63.9798ZM66.8521 34.0872H68.063V35.38C68.3466 34.9109 68.6794 34.5618 69.0612 34.3327C69.4539 34.1036 69.8466 33.989 70.2394 33.989C70.3157 33.989 70.3866 33.9945 70.4521 34.0054V35.2818C70.2557 35.2163 70.0594 35.1836 69.863 35.1836C69.1103 35.1836 68.5103 35.549 68.063 36.28V43.5454H66.8521V34.0872Z" fill="white"/>
<path d="M34.3921 60.5716C35.014 60.5716 35.4612 60.5171 35.734 60.408C36.0176 60.288 36.203 60.0753 36.2903 59.7698C36.3776 59.4644 36.4212 58.9625 36.4212 58.2644V47.6771H37.6649V58.3298C37.6649 59.1153 37.594 59.7316 37.4521 60.1789C37.3212 60.6262 37.0649 60.9589 36.683 61.1771C36.3012 61.3953 35.7394 61.5044 34.9976 61.5044H34.3921V60.5716ZM42.0879 61.0789C41.1497 61.0789 40.4952 60.7898 40.1243 60.2116C39.7534 59.6225 39.5679 58.7225 39.5679 57.5116V54.8935C39.5679 53.6825 39.7534 52.788 40.1243 52.2098C40.4952 51.6207 41.1497 51.3262 42.0879 51.3262C43.037 51.3262 43.697 51.6207 44.0679 52.2098C44.4388 52.788 44.6243 53.6825 44.6243 54.8935V57.5116C44.6243 58.7225 44.4388 59.6225 44.0679 60.2116C43.697 60.7898 43.037 61.0789 42.0879 61.0789ZM42.0879 60.1789C42.4806 60.1789 42.7697 60.0753 42.9552 59.868C43.1515 59.6607 43.277 59.3825 43.3315 59.0335C43.3861 58.6735 43.4134 58.188 43.4134 57.5771V54.828C43.4134 54.2171 43.3861 53.7371 43.3315 53.388C43.277 53.028 43.1515 52.7444 42.9552 52.5371C42.7697 52.3298 42.4806 52.2262 42.0879 52.2262C41.6952 52.2262 41.4061 52.3298 41.2206 52.5371C41.0352 52.7444 40.9152 53.028 40.8606 53.388C40.8061 53.7371 40.7788 54.2171 40.7788 54.828V57.5771C40.7788 58.188 40.8061 58.6735 40.8606 59.0335C40.9152 59.3825 41.0352 59.6607 41.2206 59.868C41.4061 60.0753 41.6952 60.1789 42.0879 60.1789ZM46.2838 51.4735H47.4783V52.4553C47.7947 52.1062 48.1438 51.8335 48.5256 51.6371C48.9183 51.4298 49.3274 51.3262 49.7529 51.3262C50.222 51.3262 50.582 51.5007 50.8329 51.8498C51.0838 52.1989 51.2092 52.6953 51.2092 53.3389V60.9316H50.0147V53.6007C50.0147 53.1207 49.9383 52.7771 49.7856 52.5698C49.6438 52.3625 49.4201 52.2589 49.1147 52.2589C48.8529 52.2589 48.5801 52.3407 48.2965 52.5044C48.0129 52.6571 47.7401 52.8698 47.4783 53.1425V60.9316H46.2838V51.4735ZM55.3522 61.0789C54.7413 61.0789 54.2503 60.9589 53.8794 60.7189C53.5085 60.4789 53.2358 60.0916 53.0613 59.5571C52.8867 59.0225 52.7994 58.2971 52.7994 57.3807V54.9916C52.7994 54.0644 52.8867 53.3389 53.0613 52.8153C53.2467 52.2807 53.5249 51.8989 53.8958 51.6698C54.2776 51.4407 54.7685 51.3262 55.3685 51.3262C56.0231 51.3262 56.5249 51.468 56.874 51.7516C57.234 52.0244 57.4794 52.4389 57.6103 52.9953C57.7522 53.5516 57.8231 54.2989 57.8231 55.2371V56.088H53.994V57.7407C53.994 58.6462 54.0976 59.2789 54.3049 59.6389C54.5122 59.9989 54.8613 60.1789 55.3522 60.1789C55.7667 60.1789 56.0831 60.048 56.3013 59.7862C56.5303 59.5244 56.6449 59.0498 56.6449 58.3625V57.708H57.8067V58.2316C57.8067 59.148 57.6158 59.8516 57.234 60.3425C56.8522 60.8335 56.2249 61.0789 55.3522 61.0789ZM56.6449 55.4007V54.6153C56.6449 54.048 56.6122 53.6007 56.5467 53.2735C56.4922 52.9462 56.3722 52.6898 56.1867 52.5044C56.0013 52.3189 55.7231 52.2262 55.3522 52.2262C55.014 52.2262 54.7467 52.3025 54.5503 52.4553C54.354 52.5971 54.2122 52.8535 54.1249 53.2244C54.0376 53.5844 53.994 54.0971 53.994 54.7625V55.4007H56.6449ZM61.5954 61.0789C60.8536 61.0789 60.2536 60.8389 59.7954 60.3589C59.3481 59.8789 59.0918 59.2244 59.0263 58.3953L60.0245 58.0844C60.09 58.8044 60.259 59.3335 60.5318 59.6716C60.8045 60.0098 61.1863 60.1789 61.6772 60.1789C62.0918 60.1789 62.4081 60.0644 62.6263 59.8353C62.8554 59.5953 62.97 59.2625 62.97 58.8371C62.97 58.2153 62.5881 57.5825 61.8245 56.9389L60.5318 55.8262C60.0845 55.4553 59.7572 55.0898 59.55 54.7298C59.3427 54.3698 59.239 53.9444 59.239 53.4535C59.239 52.788 59.4409 52.2698 59.8445 51.8989C60.259 51.5171 60.81 51.3262 61.4972 51.3262C62.1954 51.3262 62.73 51.5498 63.1009 51.9971C63.4827 52.4444 63.6954 53.0498 63.739 53.8135L62.8881 54.0916C62.8227 52.848 62.3754 52.2262 61.5463 52.2262C61.1754 52.2262 60.8809 52.3298 60.6627 52.5371C60.4445 52.7335 60.3354 53.0116 60.3354 53.3716C60.3354 53.6662 60.39 53.9225 60.499 54.1407C60.6081 54.3589 60.81 54.5989 61.1045 54.8607L62.4463 56.0553C62.959 56.5135 63.3463 56.9444 63.6081 57.348C63.8809 57.7407 64.0172 58.2262 64.0172 58.8044C64.0172 59.5244 63.799 60.0862 63.3627 60.4898C62.9263 60.8825 62.3372 61.0789 61.5954 61.0789Z" fill="white"/>
</svg>
