<svg width="18" height="17" viewBox="0 0 18 17" fill="none" xmlns="http://www.w3.org/2000/svg">
<g clip-path="url(#clip0_450_1459)">
<path d="M4.08517 16.9996V5.52968H0.226673V16.9996H4.08517ZM2.15642 3.96272C3.50195 3.96272 4.33947 3.08197 4.33947 1.98132C4.3144 0.855849 3.502 -0.000457764 2.18195 -0.000457764C0.862117 -0.000457764 -0.000976562 0.855866 -0.000976562 1.98132C-0.000976562 3.08202 0.836342 3.96272 2.13123 3.96272H2.1563H2.15642ZM6.22084 16.9996H10.0793V10.5942C10.0793 10.2514 10.1044 9.90896 10.2063 9.66391C10.4852 8.97899 11.1201 8.26962 12.186 8.26962C13.5822 8.26962 14.1408 9.32144 14.1408 10.8633V16.9995H17.9991V10.4228C17.9991 6.89965 16.0955 5.2604 13.5568 5.2604C11.4753 5.2604 10.5614 6.40997 10.0537 7.19294H10.0794V5.52944H6.22092C6.27156 6.60571 6.22092 16.9993 6.22092 16.9993L6.22084 16.9996Z" fill="#ECECEC"/>
</g>
<defs>
<clipPath id="clip0_450_1459">
<rect width="18" height="17" fill="white"/>
</clipPath>
</defs>
</svg>
