<svg width="20" height="20" viewBox="0 0 20 20" fill="none" xmlns="http://www.w3.org/2000/svg">
<mask id="mask0_555_463" style="mask-type:alpha" maskUnits="userSpaceOnUse" x="0" y="0" width="20" height="20">
<rect width="20" height="20" fill="#D9D9D9"/>
</mask>
<g mask="url(#mask0_555_463)">
<path d="M3.33268 16.6666C2.87435 16.6666 2.48199 16.5035 2.1556 16.1771C1.82921 15.8507 1.66602 15.4583 1.66602 15V4.99998C1.66602 4.54165 1.82921 4.14929 2.1556 3.8229C2.48199 3.49651 2.87435 3.33331 3.33268 3.33331H16.666C17.1243 3.33331 17.5167 3.49651 17.8431 3.8229C18.1695 4.14929 18.3327 4.54165 18.3327 4.99998V15C18.3327 15.4583 18.1695 15.8507 17.8431 16.1771C17.5167 16.5035 17.1243 16.6666 16.666 16.6666H3.33268ZM9.99935 10.8333L16.666 6.66665V4.99998L9.99935 9.16665L3.33268 4.99998V6.66665L9.99935 10.8333Z" fill="white"/>
</g>
</svg>
