<svg width="118" height="169" viewBox="0 0 118 169" fill="none" xmlns="http://www.w3.org/2000/svg">
<path d="M21.2996 1.95281C21.5277 5.4242 21.477 8.92092 21.1476 12.367C21.0969 12.7977 21.0715 13.2285 20.9955 13.6339C20.9702 13.8366 20.9449 14.0393 20.9195 14.242C20.8942 14.5461 20.9956 13.7606 20.9195 14.2167C20.8942 14.3434 20.8942 14.4954 20.8688 14.6221C20.7421 15.4836 20.5902 16.3451 20.4381 17.2066C20.1087 18.9297 19.678 20.6527 19.1712 22.325C18.9178 23.1105 18.6644 23.896 18.3857 24.6815C18.2337 25.0616 18.1069 25.4417 17.9295 25.8218C17.9042 25.8978 17.8028 26.0245 17.8028 26.1258C17.8028 25.8725 17.9549 25.7964 17.8536 25.9738C17.7522 26.1765 17.6762 26.3792 17.5748 26.5819C16.9667 27.9249 16.2319 29.2171 15.421 30.4334C15.2437 30.7121 15.041 30.9908 14.8383 31.2696C14.7369 31.4216 14.6102 31.5736 14.5088 31.7257C14.4581 31.7763 14.4075 31.8523 14.3821 31.903C14.6355 31.4469 14.4835 31.7763 14.4075 31.8777C13.9514 32.4605 13.4447 33.0433 12.9379 33.6007C12.4311 34.1328 11.9243 34.6396 11.3668 35.1464C11.1135 35.3744 10.8348 35.6025 10.5561 35.8305C10.4294 35.9319 10.3027 36.0332 10.176 36.1346C9.9733 36.2866 10.556 35.8305 10.252 36.0839C10.1506 36.1599 10.0746 36.2106 9.97322 36.2866C9.31442 36.768 8.63025 37.2241 7.92077 37.6296C7.21129 38.035 6.47657 38.339 5.74175 38.7191C5.76709 38.6938 6.17241 38.5418 5.89369 38.6431C5.79233 38.6938 5.69105 38.7191 5.5897 38.7698C5.38699 38.8458 5.18428 38.9218 4.95623 38.9978C4.57615 39.1245 4.19605 39.2512 3.79063 39.3526C3.00514 39.5806 2.1943 39.7327 1.38347 39.834C0.952709 39.8847 0.445937 40.3408 0.243228 40.6955C0.0405196 41.0756 -0.0354715 41.481 0.0152057 41.9118C0.141899 42.824 0.92737 43.5588 1.89024 43.5588C3.73995 43.5334 5.58965 43.5334 7.43937 43.6601C7.87012 43.6855 8.27554 43.7362 8.70629 43.7868C8.73163 43.7868 9.18778 43.8628 8.88371 43.8122C8.55431 43.7615 9.01033 43.8375 9.06101 43.8375C9.28906 43.8629 9.51715 43.9135 9.7452 43.9642C10.6574 44.1416 11.5442 44.3696 12.4058 44.6483C12.5578 44.699 12.7351 44.775 12.8872 44.8257C12.9632 44.851 13.0645 44.9017 13.1405 44.9271C13.2926 44.9777 13.4446 45.1298 13.0392 44.8764C13.3433 45.0791 13.7234 45.1805 14.0528 45.3578C14.6862 45.6872 15.2944 46.042 15.8518 46.4474C16.0039 46.5487 16.1558 46.6501 16.3079 46.7768C16.3586 46.8275 16.4346 46.8781 16.4853 46.9035C16.7387 47.0809 16.3839 46.8275 16.3586 46.8021C16.612 47.0555 16.9414 47.2836 17.2201 47.5116C17.7775 48.0184 18.3096 48.5252 18.8164 49.0826C19.0444 49.336 19.2725 49.5894 19.4752 49.8428C19.5766 49.9695 19.678 50.0961 19.8047 50.2482C19.9567 50.4509 19.5259 49.8681 19.7539 50.1722C19.83 50.2735 19.8806 50.3495 19.9566 50.4509C20.3874 51.0337 20.7675 51.6418 21.1476 52.2499C21.5276 52.8834 21.8824 53.5422 22.2118 54.201C22.3639 54.5304 22.5159 54.8598 22.6679 55.1892C22.6932 55.2652 22.7185 55.3412 22.7692 55.3919C22.5665 54.9105 22.6932 55.1892 22.7439 55.3159C22.8199 55.5186 22.896 55.696 22.972 55.8987C23.5548 57.419 23.9855 58.9646 24.3149 60.5356C24.4162 60.9917 24.4923 61.4225 24.5683 61.8786C24.5936 62.056 24.6189 62.2587 24.6696 62.436C24.6949 62.5881 24.7203 62.7148 24.7203 62.8668C24.7203 62.7908 24.695 62.7148 24.695 62.6388C24.695 62.7401 24.7203 62.8161 24.7203 62.9175C24.8217 63.8297 24.923 64.7165 24.9737 65.6287C25.2524 69.8096 24.9991 74.0158 24.7203 78.1713C24.6697 79.1089 25.4805 79.9197 26.3673 80.0464C27.3049 80.1731 28.1663 79.5903 28.445 78.6781C30.4468 72.3181 30.7002 65.6034 32.1952 59.142C32.5246 57.6977 32.9047 56.2534 33.4114 54.8345C33.5128 54.5304 33.6395 54.2263 33.7409 53.9476C33.7916 53.7956 33.8929 53.6436 33.9436 53.4662C33.9436 53.4915 33.7661 53.8969 33.8928 53.6182C33.9182 53.5422 33.9689 53.4408 33.9943 53.3648C34.273 52.7567 34.5517 52.1739 34.8558 51.5911C35.4639 50.4256 36.1733 49.3107 36.9588 48.2718C37.0095 48.2211 37.0602 48.1451 37.0855 48.0944C36.8321 48.4745 36.9082 48.3224 36.9842 48.2211C37.0855 48.0944 37.187 47.9677 37.2883 47.841C37.491 47.5876 37.719 47.3342 37.947 47.0808C38.3778 46.5994 38.8339 46.1433 39.29 45.7379C39.5688 45.4845 39.8221 45.2565 40.1262 45.0284C40.1768 44.9777 40.2276 44.9524 40.3036 44.9017C39.8475 45.2565 40.1768 45.0031 40.2528 44.9271C40.4049 44.8257 40.5316 44.7244 40.6837 44.623C41.2411 44.2429 41.8239 43.8882 42.432 43.5841C42.584 43.5081 42.7614 43.4321 42.9134 43.3561C42.9894 43.3307 43.0402 43.3054 43.1162 43.2801C43.4709 43.128 42.7361 43.4321 43.0655 43.3054C43.3949 43.1787 43.7243 43.052 44.079 42.9507C44.4337 42.8493 44.7632 42.7479 45.1179 42.6719C45.2699 42.6466 45.4473 42.5959 45.5993 42.5706C45.7513 42.5453 46.4608 42.4439 45.802 42.5199C46.3087 42.4439 46.7903 42.3679 47.145 41.9625C47.4237 41.6584 47.6011 41.3036 47.6771 40.8729C47.8038 40.0114 47.2463 38.9725 46.3087 38.7951C45.5739 38.6431 44.8392 38.4657 44.1044 38.2377C43.775 38.1363 43.4708 38.0096 43.1414 37.9083C42.9641 37.8323 42.7868 37.7562 42.6094 37.7056C43.1922 37.9336 42.5333 37.6549 42.3813 37.6042C41.0383 36.9707 39.7461 36.2106 38.5552 35.3237C38.5046 35.2731 38.4285 35.2224 38.3778 35.197C38.1244 34.9943 38.4792 35.2731 38.5045 35.2984C38.3778 35.1717 38.2005 35.0703 38.0485 34.9437C37.7444 34.6903 37.4656 34.4622 37.1869 34.2089C36.6294 33.7021 36.072 33.17 35.5652 32.5872C35.0584 32.0297 34.5771 31.4723 34.0956 30.8895C34.0449 30.8135 33.9942 30.7375 33.9182 30.6615C33.9435 30.6868 34.197 31.0162 33.9943 30.7628C33.8676 30.6108 33.7661 30.4587 33.6394 30.3067C33.4114 30.0026 33.1835 29.6732 32.9807 29.3692C32.1446 28.1276 31.4097 26.81 30.7509 25.467C30.5988 25.1376 30.4469 24.8336 30.2948 24.5042C30.2442 24.4281 30.2188 24.3268 30.1935 24.2508C30.0668 23.972 30.2441 24.3521 30.2441 24.3775C30.1681 24.1494 30.0667 23.9467 29.9907 23.744C29.712 23.0599 29.4586 22.3504 29.2052 21.6409C28.141 18.5242 27.3555 15.3063 26.7221 12.0629C26.3673 10.2639 26.038 8.43949 25.7592 6.61512C25.6326 5.7536 25.5059 4.91744 25.3792 4.05592C25.3285 3.62517 25.2524 3.21975 25.2017 2.78899C25.1764 2.63696 25.075 1.92747 25.1764 2.56094C25.151 2.33289 25.1258 2.13019 25.1004 1.90214C25.0244 1.37003 24.923 0.939263 24.5429 0.559184C24.2135 0.229782 23.6815 -0.0235914 23.2 0.00174723C22.7186 0.0270858 22.1864 0.179105 21.857 0.559184C21.5276 0.964602 21.2236 1.47137 21.2996 1.95281C22.1865 8.61686 23.2 15.3569 25.2525 21.7676C27.2289 27.8742 30.4469 33.7021 35.4892 37.7816C38.3525 40.0874 41.6465 41.8611 45.27 42.5452C45.4473 41.3036 45.5994 40.0621 45.7767 38.8205C44.2057 39.0232 42.7614 39.4286 41.2918 40.0621C39.9995 40.6195 38.8085 41.3797 37.6936 42.2665C35.5145 43.9642 33.7155 46.1687 32.2966 48.5252C30.8016 50.983 29.712 53.6942 28.9772 56.4815C28.0903 59.7755 27.5835 63.1709 27.0768 66.5409C26.5193 70.3417 25.9365 74.1425 24.7709 77.8166C26.0125 77.9939 27.2542 78.146 28.4958 78.3234C28.9772 70.8231 29.408 62.9682 26.8741 55.7467C24.771 49.7161 20.6407 44.0655 14.6355 41.5317C10.6067 39.834 6.1978 39.7833 1.89024 39.834C2.06761 41.0756 2.21964 42.3172 2.39701 43.5588C8.78234 42.6719 14.2301 38.5418 17.9549 33.474C22.0851 27.8489 23.8842 20.7794 24.7457 13.938C25.2525 9.95982 25.3538 5.9563 25.0751 1.97814C24.999 0.989934 24.2389 0.0270673 23.1747 0.0777445C22.2118 0.103083 21.2236 0.888586 21.2996 1.95281Z" fill="white"/>
<path d="M50.6164 104.498C50.9711 105.892 51.2499 107.285 51.4527 108.73C51.4273 108.552 51.4019 108.4 51.3766 108.223C51.7566 111.036 51.8074 113.924 51.4273 116.737C51.4526 116.559 51.4779 116.407 51.5033 116.23C51.1992 118.51 50.6164 120.74 49.7296 122.843C49.8056 122.691 49.8563 122.539 49.9323 122.387C49.5016 123.401 49.0202 124.389 48.4374 125.326C48.1587 125.808 47.8292 126.289 47.4998 126.745C47.3478 126.948 47.1958 127.151 47.0438 127.354C47.4492 126.821 47.1198 127.252 47.0184 127.379C46.917 127.506 46.8156 127.632 46.7143 127.734C46.0048 128.595 45.194 129.381 44.3578 130.115C44.1551 130.293 43.9271 130.47 43.7244 130.648C43.5977 130.749 43.1669 131.078 43.699 130.673C43.5723 130.749 43.471 130.85 43.3443 130.952C42.8629 131.306 42.3561 131.636 41.8493 131.965C40.8865 132.548 39.9236 133.055 38.8847 133.485C39.0367 133.409 39.1887 133.359 39.3407 133.283C38.6059 133.587 37.8712 133.891 37.1363 134.22C36.6296 134.448 36.1482 134.651 35.7681 135.031C34.9066 135.842 35.0585 137.236 35.9454 137.92C36.4015 138.274 37.0097 138.376 37.5418 138.528C38.454 138.807 39.3661 139.136 40.2529 139.516C40.1009 139.44 39.9489 139.389 39.7969 139.313C42.2041 140.352 44.5352 141.645 46.613 143.216C46.6636 143.266 46.7143 143.292 46.765 143.342C46.3343 143.013 46.5116 143.165 46.613 143.216C46.7396 143.317 46.841 143.393 46.9677 143.494C47.1957 143.672 47.4238 143.874 47.6265 144.052C48.0066 144.406 48.3866 144.761 48.7414 145.167C48.9187 145.344 49.0708 145.547 49.2481 145.749C49.3242 145.851 49.4002 145.952 49.4762 146.053C49.5522 146.155 49.679 146.332 49.3242 145.876C49.3749 145.952 49.4255 146.003 49.4762 146.079C49.7802 146.484 50.0844 146.915 50.3378 147.371C50.9966 148.41 51.5286 149.525 52.0354 150.665C51.9594 150.513 51.9087 150.361 51.8327 150.209C53.6571 154.567 54.4932 159.255 55.304 163.892C55.5068 165.133 55.7348 166.375 55.9629 167.617C56.0389 168.047 56.4696 168.554 56.8244 168.757C57.2044 168.96 57.6099 169.036 58.0407 168.985C58.9782 168.858 59.6624 168.073 59.6877 167.11C59.7637 165.007 59.8397 162.904 59.9157 160.775C59.9917 158.748 59.9917 156.696 60.2704 154.669C60.2451 154.846 60.2198 154.998 60.1945 155.175C60.4479 153.427 60.8279 151.679 61.284 149.981C61.512 149.145 61.7654 148.309 62.0188 147.472C62.2468 146.788 62.4496 146.079 62.7283 145.395C62.6523 145.547 62.6016 145.699 62.5255 145.851C62.8803 145.04 63.3365 144.28 63.8686 143.57C63.9446 143.469 64.0206 143.368 64.0966 143.241C64.274 143.013 63.7671 143.646 64.0459 143.292C64.2232 143.063 64.4006 142.861 64.578 142.633C64.9074 142.227 65.2622 141.847 65.6169 141.467C66.3771 140.682 67.1879 139.921 68.0241 139.187C68.2268 139.009 68.4295 138.857 68.6322 138.68C68.7335 138.604 68.8349 138.528 68.9363 138.427C68.987 138.376 69.0376 138.325 69.1136 138.3C69.0376 138.35 68.7336 138.604 68.9616 138.401C69.3671 138.097 69.7978 137.793 70.2032 137.489C71.0394 136.932 71.9009 136.399 72.8384 136.019C72.6864 136.095 72.5344 136.146 72.3824 136.222C72.4584 136.197 72.5344 136.171 72.6104 136.121C73.0665 135.943 73.4972 135.69 73.7506 135.259C73.9533 134.879 74.0293 134.474 73.9786 134.043C73.8519 133.105 73.0665 132.396 72.1036 132.396C71.6729 132.396 71.2421 132.371 70.8367 132.32C71.014 132.345 71.1661 132.371 71.3435 132.396C70.5073 132.269 69.6711 132.041 68.8856 131.712C69.0376 131.788 69.1897 131.838 69.3417 131.915C68.8603 131.712 68.4041 131.484 67.9733 131.205C67.7453 131.078 67.5427 130.926 67.3146 130.8C67.2133 130.724 67.0865 130.648 66.9852 130.572C66.9345 130.546 66.8838 130.496 66.8331 130.47C66.8078 130.445 66.7825 130.42 66.7571 130.42C66.5798 130.267 67.0105 130.622 66.9852 130.597C66.1237 129.887 65.3128 129.127 64.5526 128.291C64.3753 128.063 64.1726 127.86 63.9953 127.632C63.9192 127.531 63.8179 127.404 63.7419 127.303C63.5392 127.049 63.9446 127.556 63.8686 127.455C63.8179 127.379 63.7672 127.328 63.7165 127.252C63.3364 126.771 63.007 126.264 62.6522 125.757C61.9428 124.693 61.3094 123.578 60.7266 122.438C60.0425 121.12 59.409 119.752 58.8262 118.384C58.9022 118.536 58.9529 118.688 59.0289 118.84C57.3312 114.811 56.0135 110.605 54.924 106.348C54.6706 105.36 54.4426 104.397 54.2145 103.409C53.9865 102.446 52.8209 101.787 51.8833 102.091C50.9205 102.496 50.363 103.459 50.6164 104.498C51.1485 106.804 51.7313 109.11 52.4155 111.39C53.201 114.051 54.1132 116.711 55.1521 119.296C56.267 122.007 57.5086 124.693 59.0796 127.176C60.4732 129.406 62.1455 131.585 64.1979 133.232C65.1861 134.018 66.225 134.752 67.3906 135.259C68.6829 135.817 69.9499 136.171 71.3688 136.298C71.6475 136.323 71.9262 136.323 72.1796 136.323C72.0022 135.082 71.8502 133.84 71.6728 132.599C69.595 133.409 67.796 134.676 66.073 136.07C64.3499 137.464 62.7284 139.035 61.3601 140.783C60.6759 141.645 60.0424 142.506 59.5356 143.494C58.9529 144.66 58.5728 145.927 58.1927 147.168C57.2806 150.184 56.5456 153.25 56.3176 156.392C56.1909 158.165 56.1656 159.964 56.1149 161.738C56.0643 163.562 55.9882 165.361 55.9375 167.186C57.1791 167.008 58.4207 166.856 59.6623 166.679C58.7501 161.637 58.066 156.518 56.4443 151.653C55.6081 149.195 54.5693 146.738 53.0489 144.609C52.2888 143.52 51.4273 142.506 50.4645 141.594C49.3496 140.58 48.1079 139.668 46.841 138.857C45.4474 137.945 43.9778 137.134 42.4575 136.45C41.5959 136.045 40.7091 135.69 39.7969 135.361C39.0621 135.107 38.3272 134.904 37.5924 134.676C37.7444 134.752 37.8965 134.803 38.0486 134.879C38.2766 135.107 38.4792 135.31 38.7073 135.538C38.7833 135.69 38.834 135.842 38.91 135.994C38.9354 136.171 38.9607 136.323 38.986 136.501C38.9607 136.678 38.9354 136.83 38.91 137.008C38.834 137.16 38.7833 137.312 38.7073 137.464C38.5552 137.692 38.3526 137.97 38.1245 138.072C38.1752 138.046 38.2005 138.021 38.2512 137.996C38.3779 137.92 38.5046 137.869 38.6313 137.793C38.986 137.616 39.3661 137.464 39.7462 137.312C39.5941 137.388 39.4422 137.438 39.2901 137.514C40.329 137.084 41.3932 136.653 42.4067 136.121C43.5723 135.513 44.6619 134.803 45.7007 134.018C47.9052 132.32 49.8056 130.318 51.3006 127.987C54.1892 123.553 55.4561 118.181 55.4815 112.936C55.4815 109.794 55.0507 106.627 54.2905 103.586C54.0371 102.623 52.9223 101.939 51.9594 102.268C50.9459 102.496 50.3377 103.459 50.6164 104.498Z" fill="white"/>
<path d="M76.2844 37.2748C76.4871 38.2123 76.6645 39.1498 76.8165 40.0874C76.8925 40.5435 76.9685 41.0249 77.0446 41.5063C77.0699 41.6584 77.1965 42.3679 77.0952 41.8104C77.1458 42.0891 77.1713 42.3679 77.1966 42.6212C77.4247 44.547 77.602 46.498 77.7034 48.4491C77.9061 52.3766 77.8807 56.3294 77.6019 60.2316C77.5259 61.1944 77.4499 62.1573 77.3739 63.1455C77.3232 63.5763 77.2979 64.0323 77.2472 64.4631C77.2219 64.6658 77.1966 64.8685 77.1712 65.0966C77.1712 65.1979 77.1459 65.2993 77.1459 65.3753C77.1205 65.5273 77.1459 65.4513 77.1712 65.1473C77.1712 65.2233 77.1459 65.2993 77.1459 65.3753C76.9178 66.997 76.5631 68.5933 76.1323 70.1643C75.9043 70.9498 75.6509 71.7353 75.3722 72.4955C75.2201 72.8755 75.0934 73.2556 74.9414 73.6357C74.916 73.737 74.8654 73.8131 74.84 73.9144C74.9921 73.433 74.9161 73.7117 74.8654 73.8384C74.7641 74.0411 74.688 74.2691 74.5867 74.4718C73.9025 75.9668 73.117 77.3858 72.1795 78.7541C71.9261 79.1342 71.6475 79.5142 71.3687 79.869C71.2927 79.9703 71.1406 80.097 71.4447 79.7676C71.3687 79.869 71.2673 79.9703 71.1913 80.0717C71.0393 80.2491 70.9125 80.4264 70.7605 80.6038C70.1777 81.2879 69.5696 81.9214 68.9108 82.5549C68.5814 82.8589 68.252 83.163 67.8973 83.467C67.7199 83.6191 67.5172 83.7458 67.3652 83.8978C67.6946 83.5684 67.5679 83.7458 67.4412 83.8471C67.3399 83.9231 67.2385 83.9992 67.1118 84.0752C66.377 84.6073 65.5915 85.1141 64.7807 85.5448C64.0712 85.9249 63.6657 86.9131 63.9191 87.6986C64.0204 88.0027 64.1726 88.3067 64.4006 88.5348C64.6793 88.8388 65.3128 89.1429 65.7435 89.0922C67.4412 88.8895 69.1389 88.7882 70.8366 88.8388C71.6728 88.8642 72.4836 88.9149 73.3197 88.9909C73.5224 89.0162 73.7505 89.0416 73.9532 89.0669C74.1052 89.0922 74.8654 89.1936 74.2066 89.0922C74.6373 89.1683 75.0681 89.2189 75.4989 89.2949C77.1459 89.5737 78.7928 89.9791 80.3892 90.4859C81.2 90.7392 82.0108 91.018 82.7963 91.3474C82.9737 91.4234 83.1257 91.4741 83.3031 91.5501C83.4045 91.6007 83.5059 91.6261 83.6072 91.6768C83.0751 91.4741 83.4298 91.6008 83.5565 91.6514C83.9619 91.8288 84.342 92.0062 84.7475 92.1835C86.2931 92.9184 87.7881 93.7292 89.2071 94.6414C89.9166 95.0975 90.6007 95.5536 91.2595 96.0604C91.4369 96.187 91.6142 96.3137 91.7915 96.4404C91.8676 96.5164 91.9689 96.5671 92.0449 96.6431C91.6395 96.3391 91.8169 96.4658 91.9182 96.5418C92.2983 96.8459 92.6531 97.1246 93.0079 97.4286C94.2748 98.4929 95.491 99.6584 96.6059 100.875C97.1887 101.508 97.7462 102.167 98.3036 102.851C98.405 103.003 98.5316 103.13 98.633 103.282C98.2275 102.8 98.709 103.383 98.785 103.51C99.0384 103.865 99.2918 104.219 99.5452 104.574C100.609 106.12 101.572 107.741 102.383 109.414C102.586 109.845 102.789 110.275 102.966 110.681C103.118 111.035 102.788 110.25 102.941 110.63C102.991 110.757 103.042 110.909 103.093 111.035C103.169 111.238 103.245 111.441 103.321 111.644C103.675 112.556 103.979 113.493 104.233 114.431C104.512 115.394 105.601 116.078 106.564 115.748C107.02 115.596 107.476 115.318 107.704 114.887C107.958 114.405 107.983 113.949 107.907 113.417C107.907 113.392 107.831 112.911 107.882 113.215C107.932 113.519 107.856 113.063 107.856 113.037C107.831 112.86 107.806 112.682 107.78 112.505C107.73 112.1 107.679 111.694 107.654 111.289C107.603 110.655 107.552 110.022 107.527 109.388C107.501 108.4 107.527 107.387 107.501 106.398C107.501 105.157 107.426 103.941 107.299 102.699C107.197 101.762 107.071 100.824 106.944 99.8865C106.868 99.329 106.792 98.7716 106.716 98.1888C106.691 98.0874 106.691 97.9861 106.665 97.8847C106.589 97.4033 106.716 98.1888 106.665 97.8847C106.64 97.606 106.589 97.3526 106.564 97.0739C106.336 95.2749 106.133 93.4505 106.083 91.6261C106.057 90.6886 106.057 89.7764 106.133 88.8388C106.159 88.4081 106.184 87.952 106.26 87.5212C106.159 88.0533 106.311 87.2679 106.311 87.1665C106.361 86.9131 106.387 86.6851 106.437 86.4317C106.589 85.6462 106.817 84.886 107.071 84.1512C107.172 83.8218 107.299 83.4924 107.426 83.163C107.476 83.011 107.527 82.8589 107.603 82.7323C107.628 82.6309 107.679 82.5549 107.704 82.4535C107.882 82.0481 107.628 82.6562 107.704 82.4789C108.312 81.1359 108.996 79.8436 109.807 78.6274C110.035 78.298 110.365 77.9432 110.567 77.5885C110.542 77.6138 110.289 77.9433 110.491 77.6899C110.568 77.5885 110.644 77.5125 110.72 77.4111C110.846 77.2591 110.973 77.1071 111.1 76.955C111.632 76.3469 112.189 75.7641 112.797 75.2067C113.101 74.9279 113.431 74.6492 113.76 74.3705C114.014 74.1678 113.684 74.4465 113.659 74.4465C113.76 74.3958 113.836 74.2945 113.938 74.2438C114.115 74.1171 114.292 73.9904 114.444 73.8637C115.128 73.3823 115.838 72.9769 116.598 72.5968C117.308 72.2421 117.713 71.2032 117.46 70.443C117.181 69.6069 116.497 69.1001 115.635 69.0494C114.748 68.9987 113.861 68.9227 112.975 68.8214C112.772 68.796 112.569 68.7707 112.367 68.7453C112.265 68.7453 112.164 68.6947 112.062 68.6947C112.569 68.6693 112.24 68.72 112.088 68.6947C111.632 68.6186 111.176 68.568 110.745 68.4919C109.022 68.1879 107.324 67.8078 105.677 67.3264C104.841 67.073 104.03 66.8196 103.219 66.5155C102.839 66.3635 102.459 66.2368 102.054 66.0848C102.003 66.0594 101.471 65.8567 101.471 65.8567C101.547 65.8821 101.623 65.9327 101.699 65.9581C101.623 65.9327 101.547 65.8821 101.471 65.8567C101.37 65.806 101.243 65.7554 101.142 65.7047C99.5453 64.9952 98.0249 64.1844 96.5553 63.2469C95.8205 62.7654 95.0856 62.284 94.4015 61.7519C94.3255 61.7012 94.2747 61.6505 94.1987 61.5999C94.6295 61.9039 94.2747 61.6759 94.1987 61.5999C94.0467 61.4732 93.8693 61.3465 93.7173 61.2198C93.3626 60.9411 93.0332 60.637 92.7038 60.3329C92.0703 59.7501 91.4369 59.142 90.8541 58.5085C90.246 57.8497 89.7138 57.1402 89.131 56.4814C89.4857 56.8869 89.0551 56.3801 88.9791 56.2534C88.8524 56.076 88.7257 55.924 88.599 55.7466C88.3203 55.3666 88.0668 54.9865 87.8135 54.6064C87.3067 53.8463 86.8506 53.0607 86.3945 52.2752C85.5076 50.7042 84.7221 49.0826 83.9873 47.4102C83.962 47.3342 83.9113 47.2582 83.886 47.1822C83.8606 47.1062 83.81 47.0301 83.7846 46.9541C83.886 47.2075 83.9113 47.2329 83.8352 47.0555C83.7339 46.8274 83.6326 46.574 83.5313 46.346C83.3539 45.8899 83.1765 45.4338 82.9991 44.9777C82.6444 44.0402 82.2896 43.0773 81.9602 42.1398C81.2761 40.1887 80.6426 38.2377 80.0091 36.2866C79.705 35.3491 78.6662 34.6396 77.678 34.969C76.6645 35.2477 75.955 36.2613 76.2844 37.2748C78.5649 44.3949 80.9467 51.7431 85.3809 57.8497C87.6361 60.9664 90.3473 63.6523 93.54 65.8567C96.5553 67.9345 99.9253 69.5055 103.397 70.6457C107.35 71.938 111.48 72.6475 115.635 72.8755C115.306 71.6846 115.002 70.519 114.672 69.3281C108.921 72.1914 104.917 77.8926 103.169 83.9992C102.104 87.724 102.155 91.6008 102.586 95.4016C102.713 96.4658 102.839 97.5047 102.991 98.5689C103.017 98.8223 103.067 99.0503 103.093 99.3037C103.118 99.405 103.118 99.5064 103.143 99.6078C103.219 100.089 103.093 99.3037 103.143 99.6331C103.219 100.115 103.27 100.621 103.346 101.103C103.523 102.598 103.701 104.093 103.726 105.588C103.751 106.728 103.726 107.868 103.751 109.008C103.802 110.807 104.005 112.606 104.258 114.405C105.474 114.076 106.691 113.721 107.932 113.392C105.981 106.5 101.927 100.267 96.6059 95.5282C91.2848 90.7646 84.6968 87.2932 77.7034 85.8489C73.8012 85.038 69.7471 84.7847 65.7942 85.2914C66.1236 86.4824 66.4277 87.6479 66.7571 88.8388C72.9904 85.4181 77.1965 79.2609 79.401 72.6221C80.5412 69.1761 81.048 65.6034 81.3267 61.9799C81.6562 57.9764 81.7575 53.9729 81.6055 49.9694C81.4281 45.3831 80.9466 40.7969 80.0091 36.3119C79.8064 35.3491 78.6155 34.6903 77.678 34.9943C76.5885 35.2731 76.0817 36.2359 76.2844 37.2748Z" fill="white"/>
</svg>
