<svg width="85" height="79" viewBox="0 0 85 79" fill="none" xmlns="http://www.w3.org/2000/svg">
<path d="M77.0499 61.7695C72.811 65.8353 67.3012 68.4904 61.5185 69.4686C55.7026 70.4468 49.6538 69.7814 44.2837 67.2927C39.0866 64.8838 34.7014 60.8312 31.6736 55.9869C30.1564 53.5647 28.9786 50.9162 28.2067 48.1613C27.4281 45.3864 27.0222 42.4319 27.2152 39.5505C27.4148 36.5827 28.3065 33.5017 30.5224 31.3923C32.8714 29.1697 36.0589 27.8322 39.2463 27.4262C42.4737 27.0203 45.8741 27.3331 48.8885 28.5908C50.226 29.1497 51.5103 29.8551 52.5484 30.8732C53.4734 31.7782 54.2387 32.8762 54.8043 34.0407C55.869 36.2233 56.4878 39.0648 55.1836 41.2873C54.5115 42.4319 53.3536 43.2969 52.2556 44.009C50.978 44.8341 49.5739 45.5062 48.1232 45.9454C46.6926 46.3779 45.1487 46.4977 43.6648 46.5909C42.0145 46.6907 40.3642 46.6774 38.714 46.5576C35.42 46.3114 32.1527 45.6526 29.0252 44.5812C25.9708 43.5365 22.9497 42.1324 20.3146 40.2559C17.7726 38.4526 15.6432 36.1501 13.9197 33.5616C10.0801 27.8055 8.47644 20.9449 7.70453 14.1574C7.5049 12.4006 7.3585 10.6439 7.23872 8.88047C7.21211 8.52113 7.56479 8.21503 7.90416 8.21503C8.28346 8.21503 8.54298 8.52113 8.5696 8.88047C9.03541 15.648 9.86722 22.6018 12.7752 28.8103C14.0196 31.4654 15.61 33.9675 17.6063 36.1169C19.6558 38.3195 22.0913 39.9897 24.7664 41.3472C30.356 44.1886 36.7176 45.5594 42.9794 45.2933C44.4168 45.2334 45.914 45.1469 47.3114 44.7875C48.6423 44.4415 49.9133 43.8626 51.0911 43.1639C52.1159 42.5517 53.2937 41.7598 53.9325 40.7749C54.4982 39.9099 54.6379 38.9051 54.5647 37.8603C54.3917 35.5712 53.134 33.2289 51.4571 31.6651C50.4989 30.7667 49.2479 30.1279 48.0101 29.6621C46.5595 29.1165 45.029 28.7837 43.4918 28.6573C40.4508 28.4044 37.3432 28.817 34.5949 30.1945C33.2707 30.8532 31.993 31.705 31.0015 32.8096C30.1098 33.8078 29.5043 35.0322 29.1184 36.3098C28.3198 38.9649 28.373 41.8529 28.7923 44.5746C29.2048 47.2496 30.0167 49.8715 31.1878 52.3203C33.5102 57.1913 37.1635 61.4368 41.7151 64.3514C46.3998 67.3525 51.9096 68.7566 57.4594 68.5503C62.9892 68.344 68.4524 66.554 72.9907 63.3865C74.0953 62.6146 75.1334 61.7562 76.1049 60.8246C76.7304 60.239 77.6687 61.1773 77.0499 61.7695Z" fill="white"/>
<path d="M2.57484 11.8469C2.66135 11.8202 2.74122 11.787 2.82773 11.7537C2.77449 11.7737 2.72126 11.8003 2.66803 11.8202C3.22034 11.5807 3.71277 11.2213 4.19854 10.8753C4.71092 10.516 5.21665 10.15 5.72238 9.77734C6.00852 9.5644 6.29465 9.3448 6.58079 9.12521C6.53421 9.15848 6.49429 9.19176 6.44771 9.23168C6.78042 8.97882 7.09983 8.70598 7.4392 8.45977C7.85177 8.15367 8.42407 8.1071 8.85661 8.40655C9.16271 8.61949 9.40891 8.91228 9.68174 9.1718C9.92795 9.41136 10.1808 9.64426 10.4403 9.86385C10.7331 10.1167 11.0326 10.3629 11.332 10.5958C11.2854 10.5626 11.2455 10.5293 11.1989 10.4894C12.0241 11.1282 12.8958 11.6938 13.8141 12.1929C14.0736 12.3326 14.3398 12.4724 14.6126 12.6055C14.759 12.672 14.8788 12.8517 14.9187 13.0047C14.9653 13.1644 14.9453 13.3774 14.8522 13.5171C14.759 13.6569 14.6259 13.7833 14.4529 13.8232C14.2732 13.8631 14.1069 13.8365 13.9405 13.7567C12.2237 12.9182 10.6333 11.8336 9.2226 10.5559C9.02962 10.3829 8.8433 10.2032 8.65697 10.0236C8.47731 9.84389 8.30427 9.64426 8.10464 9.48455C8.15122 9.51783 8.19115 9.55109 8.23773 9.59101C8.18449 9.55109 8.13125 9.51783 8.06471 9.48455C8.11794 9.50452 8.1712 9.53113 8.22444 9.5511C8.17786 9.53113 8.13127 9.51782 8.08469 9.51117C8.14458 9.51782 8.20445 9.52448 8.26434 9.53779C8.22441 9.53114 8.17784 9.53114 8.13791 9.53779C8.1978 9.53114 8.2577 9.52447 8.31759 9.51117C8.27101 9.51782 8.23109 9.53113 8.19117 9.54444C8.2444 9.52447 8.29763 9.49786 8.35087 9.47789C8.2577 9.51782 8.17783 9.57106 8.09798 9.63095C8.14456 9.59768 8.18449 9.5644 8.23107 9.52447C6.92015 10.5426 5.61592 11.5674 4.23181 12.479C3.83255 12.7452 3.41331 12.9714 2.95415 13.1245C2.79445 13.1777 2.5815 13.1378 2.44175 13.058C2.30201 12.9781 2.16895 12.8184 2.13568 12.6587C2.02921 12.2994 2.22216 11.9666 2.57484 11.8469Z" fill="white"/>
</svg>
