<svg width="203" height="54" viewBox="0 0 203 54" fill="none" xmlns="http://www.w3.org/2000/svg">
<path d="M1.187 27.3386C1.187 24.8447 1.72655 22.6266 2.80565 20.6842C3.88474 18.7178 5.38349 17.1951 7.30188 16.116C9.24425 15.013 11.4384 14.4614 13.8844 14.4614C16.8818 14.4614 19.4477 15.2528 21.5819 16.8354C23.7161 18.4181 25.1429 20.5763 25.8623 23.31H19.1C18.5964 22.2549 17.877 21.4516 16.9418 20.9C16.0306 20.3485 14.9874 20.0727 13.8124 20.0727C11.918 20.0727 10.3833 20.7322 9.20828 22.0511C8.03326 23.3699 7.44576 25.1325 7.44576 27.3386C7.44576 29.5448 8.03326 31.3073 9.20828 32.6262C10.3833 33.9451 11.918 34.6045 13.8124 34.6045C14.9874 34.6045 16.0306 34.3288 16.9418 33.7772C17.877 33.2257 18.5964 32.4224 19.1 31.3672H25.8623C25.1429 34.1009 23.7161 36.2591 21.5819 37.8418C19.4477 39.4005 16.8818 40.1798 13.8844 40.1798C11.4384 40.1798 9.24425 39.6403 7.30188 38.5612C5.38349 37.4581 3.88474 35.9354 2.80565 33.993C1.72655 32.0507 1.187 29.8325 1.187 27.3386ZM41.9667 19.713C44.2688 19.713 46.1152 20.4804 47.506 22.0151C48.8969 23.5258 49.5923 25.6121 49.5923 28.2738V40H43.4774V29.1011C43.4774 27.7583 43.1297 26.7151 42.4343 25.9718C41.7389 25.2284 40.8037 24.8567 39.6286 24.8567C38.4536 24.8567 37.5184 25.2284 36.823 25.9718C36.1276 26.7151 35.7799 27.7583 35.7799 29.1011V40H29.629V13.3823H35.7799V22.6266C36.4033 21.7393 37.2546 21.0319 38.3337 20.5043C39.4128 19.9768 40.6238 19.713 41.9667 19.713ZM72.7867 29.6407C72.7867 30.2162 72.7507 30.8157 72.6787 31.4392H58.7584C58.8543 32.6861 59.25 33.6453 59.9454 34.3168C60.6648 34.9642 61.5401 35.288 62.5712 35.288C64.1059 35.288 65.173 34.6405 65.7725 33.3456H72.319C71.9833 34.6645 71.3718 35.8515 70.4846 36.9066C69.6213 37.9617 68.5302 38.789 67.2113 39.3885C65.8924 39.988 64.4177 40.2878 62.787 40.2878C60.8207 40.2878 59.0702 39.8681 57.5354 39.0288C56.0007 38.1895 54.8017 36.9905 53.9385 35.4318C53.0752 33.8731 52.6435 32.0507 52.6435 29.9644C52.6435 27.8782 53.0632 26.0557 53.9025 24.497C54.7658 22.9383 55.9648 21.7393 57.4995 20.9C59.0342 20.0607 60.7967 19.6411 62.787 19.6411C64.7294 19.6411 66.456 20.0487 67.9667 20.864C69.4774 21.6794 70.6524 22.8424 71.4917 24.3531C72.355 25.8639 72.7867 27.6264 72.7867 29.6407ZM66.4919 28.022C66.4919 26.9669 66.1322 26.1276 65.4128 25.5042C64.6934 24.8807 63.7942 24.5689 62.7151 24.5689C61.684 24.5689 60.8087 24.8687 60.0893 25.4682C59.3939 26.0677 58.9622 26.919 58.7944 28.022H66.4919ZM74.8085 29.9644C74.8085 27.8782 75.2282 26.0557 76.0675 24.497C76.9308 22.9383 78.1178 21.7393 79.6285 20.9C81.1632 20.0607 82.9138 19.6411 84.8801 19.6411C87.398 19.6411 89.4962 20.3005 91.1748 21.6194C92.8774 22.9383 93.9925 24.7967 94.52 27.1947H87.9735C87.422 25.66 86.3549 24.8927 84.7722 24.8927C83.6451 24.8927 82.7459 25.3363 82.0745 26.2236C81.403 27.0868 81.0673 28.3338 81.0673 29.9644C81.0673 31.595 81.403 32.854 82.0745 33.7412C82.7459 34.6045 83.6451 35.0362 84.7722 35.0362C86.3549 35.0362 87.422 34.2688 87.9735 32.7341H94.52C93.9925 35.0841 92.8774 36.9306 91.1748 38.2734C89.4723 39.6163 87.374 40.2878 84.8801 40.2878C82.9138 40.2878 81.1632 39.8681 79.6285 39.0288C78.1178 38.1895 76.9308 36.9905 76.0675 35.4318C75.2282 33.8731 74.8085 32.0507 74.8085 29.9644Z" fill="white"/>
<path d="M126.406 14.7492V40H120.255V24.8567L114.608 40H109.644L103.961 24.8207V40H97.8101V14.7492H105.076L112.162 32.2305L119.176 14.7492H126.406ZM149.749 29.6407C149.749 30.2162 149.713 30.8157 149.642 31.4392H135.721C135.817 32.6861 136.213 33.6453 136.908 34.3168C137.628 34.9642 138.503 35.288 139.534 35.288C141.069 35.288 142.136 34.6405 142.735 33.3456H149.282C148.946 34.6645 148.335 35.8515 147.447 36.9066C146.584 37.9617 145.493 38.789 144.174 39.3885C142.855 39.988 141.38 40.2878 139.75 40.2878C137.783 40.2878 136.033 39.8681 134.498 39.0288C132.964 38.1895 131.765 36.9905 130.901 35.4318C130.038 33.8731 129.606 32.0507 129.606 29.9644C129.606 27.8782 130.026 26.0557 130.865 24.497C131.729 22.9383 132.928 21.7393 134.462 20.9C135.997 20.0607 137.76 19.6411 139.75 19.6411C141.692 19.6411 143.419 20.0487 144.93 20.864C146.44 21.6794 147.615 22.8424 148.455 24.3531C149.318 25.8639 149.749 27.6264 149.749 29.6407ZM143.455 28.022C143.455 26.9669 143.095 26.1276 142.376 25.5042C141.656 24.8807 140.757 24.5689 139.678 24.5689C138.647 24.5689 137.772 24.8687 137.052 25.4682C136.357 26.0677 135.925 26.919 135.757 28.022H143.455ZM151.771 29.9284C151.771 27.8662 152.155 26.0557 152.922 24.497C153.714 22.9383 154.781 21.7393 156.124 20.9C157.467 20.0607 158.965 19.6411 160.62 19.6411C161.939 19.6411 163.138 19.9168 164.217 20.4684C165.32 21.0199 166.183 21.7633 166.807 22.6985V13.3823H172.958V40H166.807V37.1224C166.231 38.0816 165.404 38.849 164.325 39.4245C163.27 40 162.035 40.2878 160.62 40.2878C158.965 40.2878 157.467 39.8681 156.124 39.0288C154.781 38.1655 153.714 36.9546 152.922 35.3959C152.155 33.8132 151.771 31.9907 151.771 29.9284ZM166.807 29.9644C166.807 28.4297 166.375 27.2187 165.512 26.3315C164.673 25.4442 163.641 25.0006 162.418 25.0006C161.195 25.0006 160.152 25.4442 159.289 26.3315C158.45 27.1947 158.03 28.3937 158.03 29.9284C158.03 31.4632 158.45 32.6861 159.289 33.5974C160.152 34.4846 161.195 34.9283 162.418 34.9283C163.641 34.9283 164.673 34.4846 165.512 33.5974C166.375 32.7101 166.807 31.4991 166.807 29.9644Z" fill="#5782F1"/>
<path d="M200.923 15.4993L200.698 13.8889L199.265 14.4741C196.812 15.5142 194.158 15.9269 191.518 15.6785C188.742 15.3623 185.943 15.9022 183.46 17.2329C182.142 17.9057 181.005 18.917 180.155 20.1748C179.304 21.4326 178.766 22.8969 178.589 24.4344C178.36 26.4206 178.6 30.0694 179.329 31.9216C179.04 33.9786 178.518 38.2402 178.589 40.3204L181.118 40.3204C181.141 38.4505 182.233 36.368 182.506 34.5218C184.239 35.4007 186.75 36.0158 188.664 35.8943C190.45 35.8052 192.2 35.3385 193.809 34.5218C202.849 29.895 200.952 16.077 200.923 15.4993Z" fill="#5782F1"/>
<path d="M166.547 31.9214L166.797 30.6293L182.885 30.6293C180.59 23.8122 183.201 20.7113 183.201 20.7113C184.626 19.0335 187.348 18.8938 189.015 20.1658C190.383 21.2088 190.276 22.8822 190.361 23.877C191.343 23.6963 192.984 23.1933 194.351 24.2364C196.018 25.5084 196.355 27.8321 195.11 29.4646C193.615 31.4236 190.742 31.3081 183.825 31.4546L166.547 31.9214ZM188.153 21.6258C186.853 20.6336 185.231 20.7918 184.244 21.9551C183.586 22.7296 182.474 24.2625 184.017 30.3989C190.125 29.9268 192.699 30.0196 193.97 28.3544C193.97 28.3544 194.512 26.9963 193.75 25.748C192.915 24.2884 190.058 25.3071 189.134 25.4806C189.058 24.5439 188.914 22.2065 188.153 21.6258Z" fill="white"/>
</svg>
